<svg width="442" height="388" viewBox="0 0 442 388" fill="none" xmlns="http://www.w3.org/2000/svg">
<path opacity="0.1" d="M53.0052 71.7357C57.0425 47.6468 77.8926 30.0003 102.317 30.0003H392C419.614 30.0003 442 52.3861 442 80.0003V338C442 365.615 419.614 388 392 388H59.0772C28.1619 388 4.65495 360.226 9.76502 329.736L53.0052 71.7357Z" fill="#68C9BA"/>
<path d="M409.729 124.03C435.453 153.207 405.078 181.381 351.617 182.141C245.331 175.137 221.346 81.0076 229.379 59.903C237.412 38.7983 261.33 38.2223 296.769 81.2153C332.208 124.208 377.573 87.5574 409.729 124.03Z" stroke="white" stroke-width="1.5"/>
<ellipse cx="305.349" cy="89.1504" rx="16.8481" ry="9.95569" transform="rotate(20.7184 305.349 89.1504)" stroke="white" stroke-width="1.5"/>
</svg>
